<mxfile host="app.diagrams.net" modified="2022-02-25T11:48:36.027Z" agent="5.0 (Macintosh; Intel Mac OS X 10_15_7) AppleWebKit/537.36 (KHTML, like Gecko) Chrome/98.0.4758.109 Safari/537.36" etag="hcTuwNHJhiognsCi8BPO" version="16.2.2" type="github">
  <diagram id="sUilh2jOX9ghlgFQTyot" name="Page-1">
    <mxGraphModel dx="817" dy="715" grid="1" gridSize="10" guides="1" tooltips="1" connect="1" arrows="1" fold="1" page="1" pageScale="1" pageWidth="827" pageHeight="583" math="0" shadow="0">
      <root>
        <mxCell id="0" />
        <mxCell id="1" parent="0" />
        <mxCell id="CMupY3VwhURGfWeroFRq-7" style="edgeStyle=orthogonalEdgeStyle;curved=1;orthogonalLoop=1;jettySize=auto;html=1;entryX=-0.028;entryY=0.661;entryDx=0;entryDy=0;entryPerimeter=0;" edge="1" parent="1" source="CMupY3VwhURGfWeroFRq-1" target="CMupY3VwhURGfWeroFRq-4">
          <mxGeometry relative="1" as="geometry" />
        </mxCell>
        <mxCell id="CMupY3VwhURGfWeroFRq-9" style="edgeStyle=orthogonalEdgeStyle;curved=1;orthogonalLoop=1;jettySize=auto;html=1;exitX=1;exitY=0.5;exitDx=0;exitDy=0;exitPerimeter=0;entryX=0;entryY=0;entryDx=0;entryDy=7.20236277240348;entryPerimeter=0;" edge="1" parent="1" source="CMupY3VwhURGfWeroFRq-1" target="CMupY3VwhURGfWeroFRq-2">
          <mxGeometry relative="1" as="geometry" />
        </mxCell>
        <mxCell id="CMupY3VwhURGfWeroFRq-1" value="" style="html=1;whiteSpace=wrap;shape=isoCube2;backgroundOutline=1;isoAngle=15;shadow=0;fixDash=0;comic=0;treeFolding=0;treeMoving=0;movableLabel=0;collapsible=0;dropTarget=0;container=0;autosize=0;snapToPoint=0;fillColor=#dae8fc;strokeColor=#6c8ebf;" vertex="1" parent="1">
          <mxGeometry x="70" y="220" width="120" height="120" as="geometry" />
        </mxCell>
        <mxCell id="CMupY3VwhURGfWeroFRq-2" value="" style="html=1;whiteSpace=wrap;shape=isoCube2;backgroundOutline=1;isoAngle=15;shadow=0;fixDash=0;comic=0;treeFolding=0;treeMoving=0;movableLabel=0;collapsible=0;dropTarget=0;container=0;autosize=0;snapToPoint=0;fillColor=#dae8fc;strokeColor=#6c8ebf;" vertex="1" parent="1">
          <mxGeometry x="250" y="292" width="30" height="30" as="geometry" />
        </mxCell>
        <mxCell id="CMupY3VwhURGfWeroFRq-4" value="" style="html=1;whiteSpace=wrap;shape=isoCube2;backgroundOutline=1;isoAngle=15;shadow=0;fixDash=0;comic=0;treeFolding=0;treeMoving=0;movableLabel=0;collapsible=0;dropTarget=0;container=0;autosize=0;snapToPoint=0;fillColor=#dae8fc;strokeColor=#6c8ebf;" vertex="1" parent="1">
          <mxGeometry x="250" y="220" width="60" height="60" as="geometry" />
        </mxCell>
      </root>
    </mxGraphModel>
  </diagram>
</mxfile>
